<?xml version="1.0" standalone="no"?>
<!DOCTYPE svg PUBLIC "-//W3C//DTD SVG 20010904//EN"
 "http://www.w3.org/TR/2001/REC-SVG-20010904/DTD/svg10.dtd">
<svg version="1.0" xmlns="http://www.w3.org/2000/svg"
 width="700.000000pt" height="700.000000pt" viewBox="0 0 700.000000 700.000000"
 preserveAspectRatio="xMidYMid meet">
<metadata>
Created by potrace 1.14, written by Peter Selinger 2001-2017
</metadata>
<g transform="translate(0.000000,700.000000) scale(0.100000,-0.100000)"
fill="#000000" stroke="none">
<path d="M0 4770 c0 -1479 3 -2230 10 -2231 6 0 93 -1 195 -1 102 0 190 1 195
1 7 1 10 613 10 1814 l0 1812 46 -50 c193 -210 507 -507 740 -700 27 -22 55
-47 64 -55 9 -8 58 -50 110 -92 52 -42 104 -85 115 -95 11 -10 101 -83 200
-162 99 -79 193 -154 209 -167 16 -13 43 -34 59 -46 17 -13 62 -48 101 -79
170 -133 282 -221 296 -232 8 -7 65 -50 125 -97 61 -46 115 -89 121 -95 6 -5
48 -37 92 -70 45 -33 81 -62 82 -65 0 -4 -52 -42 -116 -85 -771 -531 -1269
-968 -1709 -1500 -123 -148 -330 -447 -419 -605 -81 -142 -227 -453 -277 -585
-72 -195 -147 -454 -172 -600 -30 -166 -46 -272 -52 -335 -4 -41 -9 -83 -11
-93 -2 -10 -6 -95 -10 -188 l-6 -169 3146 0 3146 0 0 205 0 205 -2721 0 -2722
0 6 48 c28 211 89 445 173 661 37 95 159 353 207 436 128 223 310 468 522 704
104 117 335 341 475 461 35 30 71 62 80 70 59 55 429 343 530 413 14 9 57 39
95 67 39 28 115 81 170 118 55 37 102 69 105 72 4 4 142 95 330 215 137 89
211 135 216 135 3 0 10 5 17 10 7 6 68 45 137 87 69 42 148 90 175 108 28 17
97 60 155 95 209 126 466 282 500 304 19 13 127 81 240 151 782 488 1280 890
1583 1278 115 147 192 268 259 407 57 120 114 274 132 365 31 149 34 165 42
289 l6 96 -411 0 -411 0 0 -27 c-3 -196 -103 -427 -281 -647 -274 -341 -731
-686 -1669 -1261 -124 -76 -259 -159 -300 -184 -41 -25 -82 -50 -92 -56 -9 -5
-84 -50 -165 -100 -81 -49 -153 -91 -160 -93 -6 -2 -137 95 -290 214 -153 120
-321 251 -373 291 -52 41 -102 80 -110 86 -8 7 -55 44 -105 82 -49 39 -99 77
-110 86 -11 9 -121 97 -245 195 -124 98 -227 181 -230 184 -3 3 -43 37 -90 75
-124 101 -417 352 -475 406 -27 26 -63 59 -80 74 -16 14 -83 79 -149 143
l-118 117 1866 3 1866 2 0 205 0 205 -2435 0 -2435 0 0 -2230z"/>
<path d="M3379 3098 c-114 -20 -187 -137 -158 -254 12 -48 71 -117 117 -136
20 -9 322 -12 1132 -13 934 -1 1110 1 1140 13 107 43 159 173 111 277 -23 49
-54 79 -106 101 -37 16 -129 17 -1117 18 -592 1 -1095 -2 -1119 -6z"/>
<path d="M3755 2405 c-137 -49 -174 -240 -66 -338 22 -20 58 -41 80 -47 27 -7
361 -10 1074 -8 l1035 3 44 30 c59 41 97 117 91 181 -7 77 -43 132 -113 174
-37 22 -2084 27 -2145 5z"/>
<path d="M4175 1725 c-89 -31 -149 -120 -140 -208 3 -27 12 -61 19 -76 22 -41
75 -89 115 -103 27 -9 296 -12 1101 -12 l1065 0 41 22 c45 23 90 71 106 111
17 45 11 117 -13 166 -24 48 -94 104 -133 106 -12 1 -495 2 -1074 3 -759 1
-1063 -1 -1087 -9z"/>
</g>
</svg>
